<svg width="1440" height="609" viewBox="0 0 1440 609" fill="none" xmlns="http://www.w3.org/2000/svg">
<g clip-path="url(#clip0)">
<g filter="url(#filter0_i)">
<path d="M-657.35 252.299L-554.312 301.915C-451.274 351.532 -245.199 450.765 -40.5709 514.097C164.111 578.771 367.209 604.187 565.396 507.807C763.529 410.084 956.614 187.209 1156.19 125.388C1355.77 63.5673 1561.85 162.801 1763.6 154.664C1965.34 146.528 2162.76 31.0226 2363.78 5.10335C2564.76 -22.158 2769.48 43.5224 2871.75 74.0138L2974.07 105.847L2952.42 -431L2851.54 -426.932C2750.67 -422.864 2548.93 -414.728 2347.18 -406.592C2145.44 -398.455 1943.69 -390.319 1741.94 -382.183C1540.2 -374.047 1338.45 -365.911 1136.71 -357.774C934.963 -349.638 733.218 -341.502 531.472 -333.366C329.727 -325.23 127.982 -317.094 -73.7638 -308.957C-275.509 -300.821 -477.255 -292.685 -578.127 -288.617L-679 -284.549L-657.35 252.299Z" fill="#F24D5D"/>
</g>
<path d="M998.861 34.3589C1000.92 34.3589 1002.1 36.4122 1002.1 38.4743V51.1122H999.488C998.981 49.8573 998.052 48.818 996.863 48.1724C995.673 47.5268 994.295 47.3152 992.966 47.5738C991.638 47.8324 990.44 48.5451 989.579 49.5897C988.718 50.6344 988.247 51.946 988.247 53.2997C988.247 54.6534 988.718 55.965 989.579 57.0097C990.44 58.0544 991.638 58.7671 992.966 59.0256C994.295 59.2842 995.673 59.0726 996.863 58.427C998.052 57.7815 998.981 56.7422 999.488 55.4872H1002.1V87.2731C1002.1 89.0114 1001.36 90.741 999.815 91.5314C998.411 92.267 996.85 92.6551 995.265 92.663C990.861 92.663 987.585 90.4347 985.477 87.798C984.016 85.9785 982.998 83.8449 982.502 81.5651C981.14 81.1632 979.878 80.4773 978.8 79.5526C976.73 77.7705 975.12 74.9122 975.12 70.7006C975.12 68.4985 975.277 66.5793 975.674 64.9664H987.953C989.93 64.9664 991.57 66.4247 991.847 68.3235C990.597 68.8406 989.565 69.7761 988.929 70.9699C988.293 72.1637 988.091 73.5415 988.359 74.8676C988.626 76.1937 989.346 77.3855 990.396 78.2391C991.445 79.0927 992.759 79.555 994.112 79.547C995.464 79.5389 996.772 79.0609 997.811 78.1948C998.851 77.3287 999.556 76.1284 999.808 74.7992C1000.06 73.4701 999.842 72.0947 999.191 70.9086C998.541 69.7225 997.498 68.7994 996.242 68.2972C996.089 66.2034 995.149 64.2452 993.611 62.8157C992.074 61.3863 990.052 60.5917 987.953 60.5914H978.153C978.59 60.2304 979.076 59.9338 979.597 59.7106C979.296 58.6389 979.122 57.5357 979.078 56.4235C978.981 54.2797 979.302 52.0485 979.938 50.0622C980.568 48.1081 981.565 46.2035 982.965 44.8881C983.844 44.0323 984.956 43.4567 986.162 43.2343C986.743 40.7843 988.221 38.7601 990.108 37.2931C992.532 35.4031 995.708 34.3589 998.858 34.3589H998.861ZM1006.47 78.0914H1011.29C1013.49 78.0914 1015.61 77.2156 1017.16 75.6567C1018.72 74.0978 1019.6 71.9835 1019.6 69.7789V64.5435C1020.85 64.0358 1021.89 63.1075 1022.54 61.9176C1023.18 60.7277 1023.4 59.3504 1023.14 58.0216C1022.88 56.6928 1022.17 55.4953 1021.12 54.6343C1020.08 53.7733 1018.77 53.3025 1017.41 53.3025C1016.06 53.3025 1014.75 53.7733 1013.7 54.6343C1012.66 55.4953 1011.94 56.6928 1011.69 58.0216C1011.43 59.3504 1011.64 60.7277 1012.28 61.9176C1012.93 63.1075 1013.97 64.0358 1015.22 64.5435V69.7789C1015.22 70.8232 1014.81 71.8247 1014.07 72.5631C1013.33 73.3015 1012.33 73.7164 1011.29 73.7164H1006.47V53.3201V53.2997V38.4743C1006.47 36.4122 1007.65 34.3589 1009.71 34.3589C1012.87 34.3589 1016.04 35.4031 1018.46 37.2931C1020.35 38.7601 1021.83 40.7872 1022.41 43.2343C1023.64 43.4385 1024.73 44.0626 1025.61 44.8881C1027.01 46.2035 1028 48.1051 1028.63 50.0622C1029.27 52.0485 1029.59 54.2797 1029.5 56.4235C1029.45 57.5201 1029.29 58.6401 1028.98 59.7106L1029.17 59.7981C1030.25 60.3056 1031.12 61.1018 1031.78 62.1606C1033.02 64.1585 1033.45 67.0343 1033.45 70.7006C1033.45 74.9151 1031.84 77.7764 1029.77 79.5526C1028.69 80.4777 1027.43 81.1636 1026.07 81.5651C1025.57 83.8446 1024.56 85.9782 1023.1 87.798C1020.99 90.4347 1017.71 92.663 1013.3 92.663C1011.72 92.656 1010.16 92.2689 1008.75 91.5343C1007.21 90.741 1006.47 89.0114 1006.47 87.2731V78.0914ZM992.62 53.2997C992.62 52.9129 992.773 52.542 993.047 52.2685C993.32 51.995 993.691 51.8414 994.078 51.8414C994.465 51.8414 994.836 51.995 995.109 52.2685C995.383 52.542 995.536 52.9129 995.536 53.2997C995.536 53.6865 995.383 54.0574 995.109 54.3309C994.836 54.6044 994.465 54.7581 994.078 54.7581C993.691 54.7581 993.32 54.6044 993.047 54.3309C992.773 54.0574 992.62 53.6865 992.62 53.2997ZM994.078 72.258C993.691 72.258 993.32 72.4117 993.047 72.6852C992.773 72.9587 992.62 73.3296 992.62 73.7164C992.62 74.1032 992.773 74.4741 993.047 74.7476C993.32 75.0211 993.691 75.1747 994.078 75.1747C994.465 75.1747 994.836 75.0211 995.109 74.7476C995.383 74.4741 995.536 74.1032 995.536 73.7164C995.536 73.3296 995.383 72.9587 995.109 72.6852C994.836 72.4117 994.465 72.258 994.078 72.258ZM1015.95 59.1331C1015.95 59.5198 1016.11 59.8908 1016.38 60.1642C1016.65 60.4377 1017.02 60.5914 1017.41 60.5914C1017.8 60.5914 1018.17 60.4377 1018.44 60.1642C1018.72 59.8908 1018.87 59.5198 1018.87 59.1331C1018.87 58.7463 1018.72 58.3753 1018.44 58.1019C1018.17 57.8284 1017.8 57.6747 1017.41 57.6747C1017.02 57.6747 1016.65 57.8284 1016.38 58.1019C1016.11 58.3753 1015.95 58.7463 1015.95 59.1331Z" fill="#FFB1B8" fill-opacity="0.29"/>
<path d="M444.861 34.3589C446.923 34.3589 448.099 36.4122 448.099 38.4743V51.1122H445.488C444.981 49.8573 444.052 48.818 442.863 48.1724C441.673 47.5268 440.295 47.3152 438.966 47.5738C437.638 47.8324 436.44 48.5451 435.579 49.5897C434.718 50.6344 434.247 51.946 434.247 53.2997C434.247 54.6534 434.718 55.965 435.579 57.0097C436.44 58.0544 437.638 58.7671 438.966 59.0256C440.295 59.2842 441.673 59.0726 442.863 58.427C444.052 57.7815 444.981 56.7422 445.488 55.4872H448.099V87.2731C448.099 89.0114 447.364 90.741 445.815 91.5314C444.411 92.267 442.85 92.6551 441.265 92.663C436.861 92.663 433.585 90.4347 431.477 87.798C430.016 85.9785 428.998 83.8449 428.502 81.5651C427.14 81.1632 425.878 80.4773 424.8 79.5526C422.73 77.7705 421.12 74.9122 421.12 70.7006C421.12 68.4985 421.277 66.5793 421.674 64.9664H433.953C435.93 64.9664 437.57 66.4247 437.847 68.3235C436.597 68.8406 435.565 69.7761 434.929 70.9699C434.293 72.1637 434.091 73.5415 434.359 74.8676C434.626 76.1937 435.346 77.3855 436.396 78.2391C437.445 79.0927 438.759 79.555 440.112 79.547C441.464 79.5389 442.772 79.0609 443.811 78.1948C444.851 77.3287 445.556 76.1284 445.808 74.7992C446.06 73.4701 445.842 72.0947 445.191 70.9086C444.541 69.7225 443.498 68.7994 442.242 68.2972C442.089 66.2034 441.149 64.2452 439.611 62.8157C438.074 61.3863 436.052 60.5917 433.953 60.5914H424.153C424.59 60.2304 425.076 59.9338 425.597 59.7106C425.296 58.6389 425.122 57.5357 425.078 56.4235C424.981 54.2797 425.302 52.0485 425.938 50.0622C426.568 48.1081 427.565 46.2035 428.965 44.8881C429.844 44.0323 430.956 43.4567 432.162 43.2343C432.743 40.7843 434.221 38.7601 436.108 37.2931C438.532 35.4031 441.708 34.3589 444.858 34.3589H444.861ZM452.474 78.0914H457.286C459.491 78.0914 461.605 77.2156 463.164 75.6567C464.723 74.0978 465.599 71.9835 465.599 69.7789V64.5435C466.854 64.0358 467.893 63.1075 468.539 61.9176C469.184 60.7277 469.396 59.3504 469.137 58.0216C468.879 56.6928 468.166 55.4953 467.121 54.6343C466.077 53.7733 464.765 53.3025 463.411 53.3025C462.058 53.3025 460.746 53.7733 459.701 54.6343C458.657 55.4953 457.944 56.6928 457.685 58.0216C457.427 59.3504 457.638 60.7277 458.284 61.9176C458.93 63.1075 459.969 64.0358 461.224 64.5435V69.7789C461.224 70.8232 460.809 71.8247 460.071 72.5631C459.332 73.3015 458.331 73.7164 457.286 73.7164H452.474V53.3201V53.2997V38.4743C452.474 36.4122 453.649 34.3589 455.711 34.3589C458.867 34.3589 462.04 35.4031 464.464 37.2931C466.351 38.7601 467.83 40.7872 468.41 43.2343C469.635 43.4385 470.726 44.0626 471.607 44.8881C473.007 46.2035 474.005 48.1051 474.635 50.0622C475.27 52.0485 475.591 54.2797 475.495 56.4235C475.445 57.5201 475.285 58.6401 474.976 59.7106L475.168 59.7981C476.248 60.3056 477.123 61.1018 477.776 62.1606C479.015 64.1585 479.453 67.0343 479.453 70.7006C479.453 74.9151 477.843 77.7764 475.772 79.5526C474.694 80.4777 473.431 81.1636 472.068 81.5651C471.573 83.8446 470.555 85.9782 469.096 87.798C466.987 90.4347 463.712 92.663 459.305 92.663C457.72 92.656 456.159 92.2689 454.755 91.5343C453.209 90.741 452.474 89.0114 452.474 87.2731V78.0914ZM438.62 53.2997C438.62 52.9129 438.773 52.542 439.047 52.2685C439.32 51.995 439.691 51.8414 440.078 51.8414C440.465 51.8414 440.836 51.995 441.109 52.2685C441.383 52.542 441.536 52.9129 441.536 53.2997C441.536 53.6865 441.383 54.0574 441.109 54.3309C440.836 54.6044 440.465 54.7581 440.078 54.7581C439.691 54.7581 439.32 54.6044 439.047 54.3309C438.773 54.0574 438.62 53.6865 438.62 53.2997ZM440.078 72.258C439.691 72.258 439.32 72.4117 439.047 72.6852C438.773 72.9587 438.62 73.3296 438.62 73.7164C438.62 74.1032 438.773 74.4741 439.047 74.7476C439.32 75.0211 439.691 75.1747 440.078 75.1747C440.465 75.1747 440.836 75.0211 441.109 74.7476C441.383 74.4741 441.536 74.1032 441.536 73.7164C441.536 73.3296 441.383 72.9587 441.109 72.6852C440.836 72.4117 440.465 72.258 440.078 72.258ZM461.953 59.1331C461.953 59.5198 462.107 59.8908 462.38 60.1642C462.654 60.4377 463.025 60.5914 463.411 60.5914C463.798 60.5914 464.169 60.4377 464.442 60.1642C464.716 59.8908 464.87 59.5198 464.87 59.1331C464.87 58.7463 464.716 58.3753 464.442 58.1019C464.169 57.8284 463.798 57.6747 463.411 57.6747C463.025 57.6747 462.654 57.8284 462.38 58.1019C462.107 58.3753 461.953 58.7463 461.953 59.1331Z" fill="#FFB1B8" fill-opacity="0.29"/>
<path d="M143.717 68.9422L144.342 79.9144C144.434 81.5117 143.485 82.9931 141.495 84.3589C139.504 85.7246 136.784 86.8068 133.335 87.6054C129.886 88.404 126.147 88.8033 122.12 88.8033C118.092 88.8033 114.353 88.404 110.904 87.6054C107.455 86.8068 104.735 85.7246 102.745 84.3589C100.754 82.9931 99.8048 81.5117 99.8974 79.9144L100.522 68.9422L120.453 75.2269C120.962 75.389 121.518 75.47 122.12 75.47C122.721 75.47 123.277 75.389 123.786 75.2269L143.717 68.9422ZM162.12 57.6922C162.12 58.2246 161.865 58.5834 161.356 58.7686L122.467 70.9908C122.374 71.014 122.259 71.0256 122.12 71.0256C121.981 71.0256 121.865 71.014 121.772 70.9908L99.1335 63.8381C98.1381 64.6251 97.3164 65.9156 96.6682 67.7096C96.0201 69.5036 95.6266 71.5695 95.4877 73.9075C96.946 74.7408 97.6752 76.0024 97.6752 77.6922C97.6752 79.2894 97.0039 80.5279 95.6613 81.4075L97.6752 96.4422C97.7215 96.7663 97.6289 97.0556 97.3974 97.3103C97.1891 97.5649 96.9113 97.6922 96.5641 97.6922H89.8974C89.5502 97.6922 89.2724 97.5649 89.0641 97.3103C88.8326 97.0556 88.74 96.7663 88.7863 96.4422L90.8002 81.4075C89.4576 80.5279 88.7863 79.2894 88.7863 77.6922C88.7863 76.0024 89.5386 74.7177 91.0432 73.8381C91.2979 69.0464 92.4321 65.2269 94.446 62.3797L82.8835 58.7686C82.3743 58.5834 82.1196 58.2246 82.1196 57.6922C82.1196 57.1598 82.3743 56.801 82.8835 56.6158L121.772 44.3936C121.865 44.3705 121.981 44.3589 122.12 44.3589C122.259 44.3589 122.374 44.3705 122.467 44.3936L161.356 56.6158C161.865 56.801 162.12 57.1598 162.12 57.6922Z" fill="#FFB1B8" fill-opacity="0.29"/>
<path d="M633.717 362.942L634.342 373.914C634.434 375.512 633.485 376.993 631.495 378.359C629.504 379.725 626.784 380.807 623.335 381.605C619.886 382.404 616.147 382.803 612.12 382.803C608.092 382.803 604.353 382.404 600.904 381.605C597.455 380.807 594.735 379.725 592.745 378.359C590.754 376.993 589.805 375.512 589.897 373.914L590.522 362.942L610.453 369.227C610.962 369.389 611.518 369.47 612.12 369.47C612.721 369.47 613.277 369.389 613.786 369.227L633.717 362.942ZM652.12 351.692C652.12 352.225 651.865 352.583 651.356 352.769L612.467 364.991C612.374 365.014 612.259 365.026 612.12 365.026C611.981 365.026 611.865 365.014 611.772 364.991L589.134 357.838C588.138 358.625 587.316 359.916 586.668 361.71C586.02 363.504 585.627 365.57 585.488 367.907C586.946 368.741 587.675 370.002 587.675 371.692C587.675 373.289 587.004 374.528 585.661 375.407L587.675 390.442C587.721 390.766 587.629 391.056 587.397 391.31C587.189 391.565 586.911 391.692 586.564 391.692H579.897C579.55 391.692 579.272 391.565 579.064 391.31C578.833 391.056 578.74 390.766 578.786 390.442L580.8 375.407C579.458 374.528 578.786 373.289 578.786 371.692C578.786 370.002 579.539 368.718 581.043 367.838C581.298 363.046 582.432 359.227 584.446 356.38L572.884 352.769C572.374 352.583 572.12 352.225 572.12 351.692C572.12 351.16 572.374 350.801 572.884 350.616L611.772 338.394C611.865 338.37 611.981 338.359 612.12 338.359C612.259 338.359 612.374 338.37 612.467 338.394L651.356 350.616C651.865 350.801 652.12 351.16 652.12 351.692Z" fill="#FFB1B8" fill-opacity="0.29"/>
<path d="M421.453 507.109C424.661 507.109 427.257 504.484 427.257 501.276L427.286 469.192C427.286 465.984 424.661 463.359 421.453 463.359H374.786C371.578 463.359 368.953 465.984 368.953 469.192V501.276C368.953 504.484 371.578 507.109 374.786 507.109H363.12C363.12 510.317 365.745 512.942 368.953 512.942H427.286C430.495 512.942 433.12 510.317 433.12 507.109H421.453ZM374.786 469.192H421.453V501.276H374.786V469.192ZM398.12 510.026C396.515 510.026 395.203 508.713 395.203 507.109C395.203 505.505 396.515 504.192 398.12 504.192C399.724 504.192 401.036 505.505 401.036 507.109C401.036 508.713 399.724 510.026 398.12 510.026Z" fill="#FFB1B8" fill-opacity="0.29"/>
<path d="M763.453 174.109C766.661 174.109 769.257 171.484 769.257 168.276L769.286 136.192C769.286 132.984 766.661 130.359 763.453 130.359H716.786C713.578 130.359 710.953 132.984 710.953 136.192V168.276C710.953 171.484 713.578 174.109 716.786 174.109H705.12C705.12 177.317 707.745 179.942 710.953 179.942H769.286C772.495 179.942 775.12 177.317 775.12 174.109H763.453ZM716.786 136.192H763.453V168.276H716.786V136.192ZM740.12 177.026C738.515 177.026 737.203 175.713 737.203 174.109C737.203 172.505 738.515 171.192 740.12 171.192C741.724 171.192 743.036 172.505 743.036 174.109C743.036 175.713 741.724 177.026 740.12 177.026Z" fill="#FFB1B8" fill-opacity="0.29"/>
</g>
<defs>
<filter id="filter0_i" x="-679" y="-431" width="3667.47" height="1065.47" filterUnits="userSpaceOnUse" color-interpolation-filters="sRGB">
<feFlood flood-opacity="0" result="BackgroundImageFix"/>
<feBlend mode="normal" in="SourceGraphic" in2="BackgroundImageFix" result="shape"/>
<feColorMatrix in="SourceAlpha" type="matrix" values="0 0 0 0 0 0 0 0 0 0 0 0 0 0 0 0 0 0 127 0" result="hardAlpha"/>
<feOffset dy="25"/>
<feGaussianBlur stdDeviation="25"/>
<feComposite in2="hardAlpha" operator="arithmetic" k2="-1" k3="1"/>
<feColorMatrix type="matrix" values="0 0 0 0 0 0 0 0 0 0 0 0 0 0 0 0 0 0 0.8 0"/>
<feBlend mode="normal" in2="shape" result="effect1_innerShadow"/>
</filter>
<clipPath id="clip0">
<rect width="3634.37" height="1074.57" fill="white" transform="translate(-679 -284.549) rotate(-2.30942)"/>
</clipPath>
</defs>
</svg>
