<svg width="25" height="19" viewBox="0 0 25 19" fill="none" xmlns="http://www.w3.org/2000/svg">
<path d="M21.1636 1.67918C19.5698 0.96043 17.8615 0.42918 16.075 0.127097C16.0591 0.124042 16.0426 0.126011 16.0279 0.132729C16.0131 0.139448 16.0009 0.150584 15.9927 0.164597C15.774 0.548972 15.5302 1.05001 15.3594 1.44585C13.4647 1.16276 11.5385 1.16276 9.64376 1.44585C9.45349 1.00716 9.23892 0.579413 9.00105 0.164597C8.99299 0.150412 8.98079 0.139023 8.96609 0.131951C8.95139 0.124878 8.93488 0.122458 8.91876 0.125013C7.13335 0.427096 5.42501 0.958347 3.83022 1.67814C3.8165 1.68389 3.80487 1.69371 3.79689 1.70626C0.555221 6.47189 -0.333321 11.1198 0.103137 15.7094C0.104352 15.7206 0.107841 15.7315 0.113393 15.7414C0.118944 15.7512 0.126442 15.7598 0.135429 15.7667C2.0275 17.1442 4.13786 18.1936 6.37814 18.8708C6.39375 18.8757 6.41046 18.8756 6.42607 18.8708C6.44168 18.866 6.45547 18.8566 6.46564 18.8438C6.94689 18.1979 7.37605 17.5156 7.74272 16.799C7.7646 16.7573 7.74376 16.7073 7.70001 16.6906C7.0271 16.4372 6.3751 16.1314 5.75001 15.7761C5.73878 15.7696 5.72932 15.7605 5.72247 15.7496C5.71562 15.7386 5.7116 15.7261 5.71078 15.7132C5.70995 15.7003 5.71234 15.6874 5.71774 15.6756C5.72313 15.6639 5.73136 15.6536 5.74168 15.6458C5.87293 15.549 6.00418 15.4479 6.12918 15.3469C6.14043 15.3378 6.15398 15.332 6.16833 15.3302C6.18267 15.3283 6.19725 15.3305 6.21043 15.3365C10.3011 17.174 14.7313 17.174 18.774 15.3365C18.7872 15.3302 18.8019 15.3277 18.8165 15.3294C18.831 15.331 18.8448 15.3367 18.8563 15.3458C18.9813 15.4479 19.1115 15.549 19.2438 15.6458C19.2542 15.6535 19.2626 15.6636 19.2681 15.6752C19.2737 15.6869 19.2763 15.6997 19.2757 15.7126C19.275 15.7255 19.2712 15.7381 19.2646 15.7491C19.2579 15.7602 19.2486 15.7695 19.2375 15.7761C18.6146 16.1344 17.9667 16.4375 17.2865 16.6896C17.276 16.6934 17.2665 16.6994 17.2586 16.7071C17.2506 16.7149 17.2444 16.7243 17.2404 16.7346C17.2363 16.745 17.2345 16.7561 17.2351 16.7672C17.2357 16.7783 17.2387 16.7891 17.2438 16.799C17.6188 17.5146 18.0479 18.1958 18.5198 18.8427C18.5296 18.856 18.5433 18.8659 18.5589 18.8711C18.5746 18.8764 18.5915 18.8766 18.6073 18.8719C20.8514 18.1965 22.9652 17.1467 24.8594 15.7667C24.8686 15.7602 24.8764 15.7519 24.8821 15.7422C24.8879 15.7325 24.8915 15.7216 24.8927 15.7104C25.4136 10.4042 24.0198 5.79376 21.1958 1.70835C21.1889 1.69507 21.1775 1.68472 21.1636 1.67918ZM8.35418 12.9146C7.12293 12.9146 6.1073 11.8011 6.1073 10.4354C6.1073 9.06876 7.10314 7.95626 8.35418 7.95626C9.6146 7.95626 10.6208 9.07814 10.6011 10.4354C10.6011 11.8021 9.60522 12.9146 8.35418 12.9146ZM16.6615 12.9146C15.4292 12.9146 14.4146 11.8011 14.4146 10.4354C14.4146 9.06876 15.4094 7.95626 16.6615 7.95626C17.9219 7.95626 18.9281 9.07814 18.9083 10.4354C18.9083 11.8021 17.9229 12.9146 16.6615 12.9146Z" fill="#3A4750"/>
</svg>
