<svg width="23" height="23" viewBox="0 0 23 23" fill="none" xmlns="http://www.w3.org/2000/svg">
<path fill-rule="evenodd" clip-rule="evenodd" d="M6.77604 0.110254C7.99791 0.0540039 8.3875 0.0415039 11.5 0.0415039C14.6125 0.0415039 15.0021 0.0550456 16.2229 0.110254C17.4437 0.165462 18.2771 0.360254 19.0062 0.642546C19.7698 0.931087 20.4625 1.38213 21.0354 1.96546C21.6187 2.53734 22.0687 3.229 22.3562 3.99359C22.6396 4.72275 22.8333 5.55609 22.8896 6.77484C22.9458 7.99879 22.9583 8.38838 22.9583 11.4998C22.9583 14.6123 22.9448 15.0019 22.8896 16.2238C22.8344 17.4425 22.6396 18.2759 22.3562 19.005C22.0687 19.7697 21.618 20.4625 21.0354 21.0352C20.4625 21.6186 19.7698 22.0686 19.0062 22.3561C18.2771 22.6394 17.4437 22.8332 16.225 22.8894C15.0021 22.9457 14.6125 22.9582 11.5 22.9582C8.3875 22.9582 7.99791 22.9446 6.77604 22.8894C5.55729 22.8342 4.72396 22.6394 3.99479 22.3561C3.23012 22.0685 2.53731 21.6178 1.96458 21.0352C1.38164 20.463 0.930533 19.7705 0.642706 19.0061C0.360414 18.2769 0.166664 17.4436 0.110414 16.2248C0.0541641 15.0009 0.0416641 14.6113 0.0416641 11.4998C0.0416641 8.38734 0.0552058 7.99775 0.110414 6.77692C0.165622 5.55609 0.360414 4.72275 0.642706 3.99359C0.930959 3.22909 1.38241 2.53662 1.96562 1.96442C2.53754 1.38161 3.22966 0.930507 3.99375 0.642546C4.72291 0.360254 5.55625 0.166504 6.775 0.110254H6.77604ZM16.1302 2.17275C14.9219 2.11755 14.5594 2.10609 11.5 2.10609C8.44062 2.10609 8.07812 2.11755 6.86979 2.17275C5.75208 2.2238 5.14583 2.41025 4.74166 2.56755C4.20729 2.77588 3.825 3.02275 3.42396 3.4238C3.04379 3.79364 2.75123 4.24388 2.56771 4.7415C2.41041 5.14567 2.22396 5.75192 2.17291 6.86963C2.11771 8.07796 2.10625 8.44046 2.10625 11.4998C2.10625 14.5592 2.11771 14.9217 2.17291 16.13C2.22396 17.2478 2.41041 17.854 2.56771 18.2582C2.75104 18.755 3.04375 19.2061 3.42396 19.5759C3.79375 19.9561 4.24479 20.2488 4.74166 20.4321C5.14583 20.5894 5.75208 20.7759 6.86979 20.8269C8.07812 20.8821 8.43958 20.8936 11.5 20.8936C14.5604 20.8936 14.9219 20.8821 16.1302 20.8269C17.2479 20.7759 17.8542 20.5894 18.2583 20.4321C18.7927 20.2238 19.175 19.9769 19.576 19.5759C19.9562 19.2061 20.249 18.755 20.4323 18.2582C20.5896 17.854 20.776 17.2478 20.8271 16.13C20.8823 14.9217 20.8937 14.5592 20.8937 11.4998C20.8937 8.44046 20.8823 8.07796 20.8271 6.86963C20.776 5.75192 20.5896 5.14567 20.4323 4.7415C20.224 4.20713 19.9771 3.82484 19.576 3.4238C19.2062 3.04366 18.7559 2.7511 18.2583 2.56755C17.8542 2.41025 17.2479 2.2238 16.1302 2.17275ZM10.0365 15.0321C10.8538 15.3724 11.7639 15.4183 12.6114 15.162C13.4588 14.9058 14.191 14.3633 14.6829 13.6272C15.1748 12.8911 15.3959 12.007 15.3084 11.126C15.2209 10.245 14.8302 9.42168 14.2031 8.79671C13.8034 8.39721 13.32 8.09131 12.7878 7.90103C12.2557 7.71075 11.6879 7.64084 11.1255 7.69631C10.5631 7.75178 10.0199 7.93127 9.53521 8.22185C9.05047 8.51242 8.63619 8.90686 8.32219 9.37676C8.00819 9.84667 7.80228 10.3803 7.71928 10.9394C7.63629 11.4984 7.67828 12.0689 7.84223 12.6097C8.00617 13.1506 8.288 13.6484 8.66741 14.0673C9.04683 14.4861 9.5144 14.8157 10.0365 15.0321ZM7.33541 7.33525C7.88231 6.78835 8.53158 6.35453 9.24614 6.05855C9.9607 5.76257 10.7266 5.61023 11.5 5.61023C12.2734 5.61023 13.0393 5.76257 13.7539 6.05855C14.4684 6.35453 15.1177 6.78835 15.6646 7.33525C16.2115 7.88215 16.6453 8.53142 16.9413 9.24598C17.2373 9.96054 17.3896 10.7264 17.3896 11.4998C17.3896 12.2733 17.2373 13.0391 16.9413 13.7537C16.6453 14.4683 16.2115 15.1175 15.6646 15.6644C14.5601 16.7689 13.062 17.3894 11.5 17.3894C9.93797 17.3894 8.43993 16.7689 7.33541 15.6644C6.2309 14.5599 5.61039 13.0619 5.61039 11.4998C5.61039 9.93781 6.2309 8.43977 7.33541 7.33525ZM18.6958 6.48734C18.8314 6.35949 18.9398 6.20575 19.0149 6.03523C19.0899 5.8647 19.13 5.68085 19.1327 5.49455C19.1354 5.30826 19.1007 5.12332 19.0307 4.95068C18.9607 4.77804 18.8567 4.6212 18.725 4.48946C18.5932 4.35772 18.4364 4.25375 18.2637 4.18371C18.0911 4.11367 17.9061 4.07898 17.7199 4.08169C17.5336 4.08441 17.3497 4.12448 17.1792 4.19952C17.0087 4.27456 16.8549 4.38306 16.7271 4.51859C16.4784 4.78216 16.3423 5.13225 16.3476 5.49455C16.3529 5.85686 16.4992 6.20284 16.7554 6.45905C17.0116 6.71526 17.3576 6.86153 17.7199 6.86681C18.0822 6.8721 18.4323 6.73597 18.6958 6.48734Z" fill="#3A4750"/>
</svg>
