<svg width="23" height="23" viewBox="0 0 23 23" fill="none" xmlns="http://www.w3.org/2000/svg">
<path d="M19.5931 19.601H16.1913V14.2629C16.1913 12.99 16.1647 11.3541 14.4124 11.3541C12.6385 11.3541 12.3682 12.7348 12.3682 14.1687V19.6003H8.96209V8.62428H12.2338V10.1214H12.2777C12.7348 9.25678 13.8467 8.34756 15.5056 8.34756C18.9563 8.34756 19.5967 10.6195 19.5967 13.5736V19.6003L19.5931 19.601ZM5.11391 7.12425C4.85392 7.12434 4.59646 7.07315 4.35629 6.97359C4.11612 6.87403 3.89795 6.72807 3.71427 6.54406C3.5306 6.36005 3.38503 6.14162 3.28591 5.90126C3.18679 5.66091 3.13606 5.40336 3.13662 5.14337C3.13705 4.75205 3.2535 4.36964 3.47125 4.0445C3.68899 3.71935 3.99826 3.46607 4.35995 3.31668C4.72163 3.16729 5.11949 3.12849 5.50322 3.2052C5.88695 3.28191 6.23932 3.47068 6.51578 3.74764C6.79223 4.0246 6.98036 4.37731 7.05637 4.76118C7.13239 5.14505 7.09287 5.54283 6.94282 5.90425C6.79277 6.26566 6.53893 6.57447 6.21339 6.79162C5.88785 7.00878 5.50523 7.12453 5.11391 7.12425ZM6.82022 19.601H3.40687V8.625H6.82022V19.601ZM21.3009 0H1.69625C0.759719 0 0 0.741031 0 1.65816V21.3426C0 22.2597 0.759719 23.0007 1.69625 23.0007H21.2973C22.2324 23.0007 23 22.2597 23 21.3426V1.65816C23 0.741031 22.2324 0 21.2973 0H21.3009Z" fill="#3A4750"/>
</svg>
