<svg width="78" height="65" viewBox="0 0 78 65" fill="none" xmlns="http://www.w3.org/2000/svg">
<path d="M4.875 9.7865C9.18937 7.98275 15.3758 6.03762 21.3915 5.43312C27.8752 4.77987 33.3742 5.74025 36.5625 9.09912V56.6109C32.0044 54.0271 26.2275 53.6713 20.8991 54.2075C15.1466 54.7925 9.34538 56.4549 4.875 58.1611V9.7865ZM41.4375 9.09912C44.6258 5.74025 50.1248 4.77987 56.6085 5.43312C62.6243 6.03762 68.8106 7.98275 73.125 9.7865V58.1611C68.6497 56.4549 62.8534 54.7876 57.1009 54.2124C51.7676 53.6713 45.9956 54.0223 41.4375 56.6109V9.09912ZM39 4.69212C34.1981 0.562999 27.2366 -0.0512513 20.8991 0.582499C13.5184 1.32837 6.06938 3.8585 1.42838 5.96937C1.00254 6.16305 0.64143 6.47517 0.388152 6.86848C0.134875 7.2618 0.000129536 7.71969 0 8.1875L0 61.8125C0.000112915 62.2203 0.102556 62.6216 0.297946 62.9796C0.493336 63.3376 0.775426 63.6408 1.11838 63.8615C1.46133 64.0823 1.85418 64.2134 2.26094 64.2429C2.66771 64.2725 3.07538 64.1995 3.44662 64.0306C7.74638 62.0806 14.6738 59.7358 21.3866 59.0581C28.2555 58.3659 34.0129 59.4823 37.0988 63.3335C37.3271 63.6182 37.6166 63.8479 37.9456 64.0058C38.2747 64.1637 38.635 64.2457 39 64.2457C39.365 64.2457 39.7253 64.1637 40.0544 64.0058C40.3834 63.8479 40.6729 63.6182 40.9013 63.3335C43.9871 59.4823 49.7445 58.3659 56.6085 59.0581C63.3263 59.7358 70.2585 62.0806 74.5534 64.0306C74.9246 64.1995 75.3323 64.2725 75.7391 64.2429C76.1458 64.2134 76.5387 64.0823 76.8816 63.8615C77.2246 63.6408 77.5067 63.3376 77.7021 62.9796C77.8974 62.6216 77.9999 62.2203 78 61.8125V8.1875C77.9999 7.71969 77.8651 7.2618 77.6118 6.86848C77.3586 6.47517 76.9975 6.16305 76.5716 5.96937C71.9306 3.8585 64.4816 1.32837 57.1009 0.582499C50.7634 -0.0561263 43.8019 0.562999 39 4.69212Z" fill="#EEEEEE"/>
</svg>
