<svg width="70" height="67" viewBox="0 0 70 67" fill="none" xmlns="http://www.w3.org/2000/svg">
<path d="M61.25 4.375C62.4103 4.375 63.5231 4.83594 64.3436 5.65641C65.1641 6.47688 65.625 7.58968 65.625 8.75V43.75C65.625 44.9103 65.1641 46.0231 64.3436 46.8436C63.5231 47.6641 62.4103 48.125 61.25 48.125H19.3113C16.9908 48.1255 14.7656 49.0477 13.125 50.6888L4.375 59.4388V8.75C4.375 7.58968 4.83594 6.47688 5.65641 5.65641C6.47688 4.83594 7.58968 4.375 8.75 4.375H61.25ZM8.75 0C6.42936 0 4.20376 0.921873 2.56282 2.56282C0.921872 4.20376 0 6.42936 0 8.75L0 64.7194C9.19401e-05 65.1522 0.128593 65.5753 0.369238 65.9351C0.609883 66.2949 0.951856 66.5752 1.35187 66.7405C1.75189 66.9059 2.19197 66.9488 2.61641 66.864C3.04085 66.7791 3.43057 66.5702 3.73625 66.2638L16.2181 53.7819C17.0384 52.9614 18.151 52.5003 19.3113 52.5H61.25C63.5706 52.5 65.7962 51.5781 67.4372 49.9372C69.0781 48.2962 70 46.0706 70 43.75V8.75C70 6.42936 69.0781 4.20376 67.4372 2.56282C65.7962 0.921873 63.5706 0 61.25 0L8.75 0Z" fill="#EEEEEE"/>
<path d="M21.875 26.25C21.875 27.4103 21.4141 28.5231 20.5936 29.3436C19.7731 30.1641 18.6603 30.625 17.5 30.625C16.3397 30.625 15.2269 30.1641 14.4064 29.3436C13.5859 28.5231 13.125 27.4103 13.125 26.25C13.125 25.0897 13.5859 23.9769 14.4064 23.1564C15.2269 22.3359 16.3397 21.875 17.5 21.875C18.6603 21.875 19.7731 22.3359 20.5936 23.1564C21.4141 23.9769 21.875 25.0897 21.875 26.25ZM39.375 26.25C39.375 27.4103 38.9141 28.5231 38.0936 29.3436C37.2731 30.1641 36.1603 30.625 35 30.625C33.8397 30.625 32.7269 30.1641 31.9064 29.3436C31.0859 28.5231 30.625 27.4103 30.625 26.25C30.625 25.0897 31.0859 23.9769 31.9064 23.1564C32.7269 22.3359 33.8397 21.875 35 21.875C36.1603 21.875 37.2731 22.3359 38.0936 23.1564C38.9141 23.9769 39.375 25.0897 39.375 26.25ZM56.875 26.25C56.875 27.4103 56.4141 28.5231 55.5936 29.3436C54.7731 30.1641 53.6603 30.625 52.5 30.625C51.3397 30.625 50.2269 30.1641 49.4064 29.3436C48.5859 28.5231 48.125 27.4103 48.125 26.25C48.125 25.0897 48.5859 23.9769 49.4064 23.1564C50.2269 22.3359 51.3397 21.875 52.5 21.875C53.6603 21.875 54.7731 22.3359 55.5936 23.1564C56.4141 23.9769 56.875 25.0897 56.875 26.25Z" fill="#EEEEEE"/>
</svg>
