<svg width="67" height="67" viewBox="0 0 67 67" fill="none" xmlns="http://www.w3.org/2000/svg">
<path d="M56.5947 32.0498H52.543C52.4653 32.0498 52.3908 32.019 52.3358 31.964C52.2809 31.9091 52.25 31.8346 52.25 31.7569V20.4424C52.25 18.9327 51.6503 17.4848 50.5827 16.4173C49.5152 15.3498 48.0673 14.75 46.5576 14.75H35.2432C35.1655 14.75 35.0909 14.7192 35.036 14.6642C34.9811 14.6093 34.9502 14.5348 34.9502 14.4571V10.4053C34.9502 6.42971 31.8008 3.10158 27.8252 3.03274C26.862 3.01581 25.905 3.19089 25.0102 3.54773C24.1154 3.90458 23.3006 4.43607 22.6133 5.11117C21.9261 5.78627 21.3802 6.59148 21.0074 7.47982C20.6347 8.36815 20.4426 9.32182 20.4424 10.2852V14.4571C20.4424 14.5348 20.4115 14.6093 20.3566 14.6642C20.3016 14.7192 20.2271 14.75 20.1494 14.75H8.83496C7.29715 14.7547 5.82364 15.3676 4.73624 16.455C3.64884 17.5424 3.03589 19.0159 3.03125 20.5537V30.8633C3.03125 30.941 3.06212 31.0155 3.11706 31.0705C3.172 31.1254 3.24652 31.1563 3.32422 31.1563H7.26611C11.5684 31.1563 15.1294 34.8887 15.1895 39.1909C15.251 43.5664 11.7456 47.5625 7.3833 47.5625H3.32422C3.24652 47.5625 3.172 47.5934 3.11706 47.6483C3.06212 47.7033 3.03125 47.7778 3.03125 47.8555V58.1651C3.03589 59.7029 3.64884 61.1764 4.73624 62.2638C5.82364 63.3512 7.29715 63.9641 8.83496 63.9688H19.1445C19.2222 63.9688 19.2967 63.9379 19.3517 63.883C19.4066 63.828 19.4375 63.7535 19.4375 63.6758V60.6099C19.4375 56.1743 23.063 52.3555 27.4941 52.2515C31.9033 52.1489 35.8438 55.2266 35.8438 59.6167V63.6758C35.8438 63.7535 35.8746 63.828 35.9296 63.883C35.9845 63.9379 36.059 63.9688 36.1367 63.9688H46.5576C48.0673 63.9688 49.5152 63.369 50.5827 62.3015C51.6503 61.234 52.25 59.7861 52.25 58.2764V46.8506C52.25 46.7729 52.2809 46.6984 52.3358 46.6434C52.3908 46.5885 52.4653 46.5576 52.543 46.5576H56.7148C60.7622 46.5576 63.9688 43.2368 63.9688 39.1748C63.9688 35.1128 60.5703 32.0498 56.5947 32.0498V32.0498Z" stroke="#EEEEEE" stroke-width="6" stroke-linecap="round" stroke-linejoin="round"/>
</svg>
