<svg width="21" height="22" viewBox="0 0 21 22" fill="none" xmlns="http://www.w3.org/2000/svg">
<path d="M18.7389 17.1343C18.2474 16.625 17.7691 16.101 17.3045 15.563C16.9141 15.1338 16.6791 14.8216 16.6791 14.8216L13.741 13.3036C14.9173 11.8602 15.5664 10.002 15.5668 8.07754C15.5668 3.69618 12.2719 0.130005 8.22157 0.130005C4.1712 0.130005 0.876343 3.69618 0.876343 8.07754C0.876343 12.4589 4.1712 16.0251 8.22157 16.0251C10.0715 16.0251 11.7578 15.2757 13.0516 14.0507L14.4545 17.2297C14.4545 17.2297 14.7431 17.484 15.1397 17.9064C15.5458 18.3185 16.0799 18.876 16.592 19.4584L18.017 21.0388L18.6507 21.7723L20.8763 19.3642L20.1985 18.6784C19.8008 18.2561 19.2698 17.6952 18.7389 17.1343ZM8.22157 13.7544C5.3286 13.7544 2.97498 11.2077 2.97498 8.07754C2.97498 4.94735 5.3286 2.40073 8.22157 2.40073C11.1145 2.40073 13.4682 4.94735 13.4682 8.07754C13.4682 11.2077 11.1145 13.7544 8.22157 13.7544Z" fill="#FAFAFA"/>
</svg>
