<svg width="213" height="213" viewBox="0 0 213 213" fill="none" xmlns="http://www.w3.org/2000/svg">
<path fill-rule="evenodd" clip-rule="evenodd" d="M106.5 0C47.6587 0 0 48.8642 0 109.194C0 157.512 30.4856 198.323 72.8194 212.791C78.1444 213.747 80.1413 210.471 80.1413 207.605C80.1413 205.011 80.0081 196.412 80.0081 187.267C53.25 192.318 46.3275 180.579 44.1975 174.437C42.9994 171.298 37.8075 161.607 33.2812 159.013C29.5538 156.966 24.2287 151.916 33.1481 151.779C41.535 151.643 47.5256 159.696 49.5225 162.972C59.1075 179.487 74.4169 174.847 80.5406 171.98C81.4725 164.883 84.2681 160.105 87.33 157.376C63.6338 154.646 38.8725 145.228 38.8725 103.461C38.8725 91.5863 42.9994 81.7589 49.7887 74.1153C48.7238 71.3854 44.9963 60.1931 50.8537 45.1789C50.8537 45.1789 59.7731 42.3126 80.1413 56.3713C88.6612 53.9144 97.7137 52.686 106.766 52.686C115.819 52.686 124.871 53.9144 133.391 56.3713C153.759 42.1761 162.679 45.1789 162.679 45.1789C168.536 60.1931 164.809 71.3854 163.744 74.1153C170.533 81.7589 174.66 91.4498 174.66 103.461C174.66 145.364 149.766 154.646 126.069 157.376C129.93 160.788 133.258 167.339 133.258 177.576C133.258 192.181 133.125 203.919 133.125 207.605C133.125 210.471 135.122 213.883 140.447 212.791C161.589 205.473 179.96 191.541 192.975 172.957C205.99 154.373 212.994 132.072 213 109.194C213 48.8642 165.341 0 106.5 0Z" fill="black"/>
</svg>
