<svg width="428" height="146" viewBox="0 0 428 146" fill="none" xmlns="http://www.w3.org/2000/svg">
<path fill-rule="evenodd" clip-rule="evenodd" d="M398.96 60.1007C398.576 60.1986 398.189 61.2782 398.189 61.8665C398.112 65.7938 398.035 76.1992 398.035 83.2667C398.035 83.4635 398.266 83.856 398.498 83.856C399.656 83.9539 402.436 84.0517 404.83 84.0517C408.151 84.0517 410.082 83.4635 411.164 82.8753C413.943 81.1073 415.257 77.2789 415.257 73.057C415.257 63.5366 410.005 59.9039 402.204 59.9039C401.664 59.806 400.12 59.806 398.96 60.1007ZM418.887 103.98C418.887 94.2615 413.249 88.862 403.055 88.862C402.591 88.862 399.347 88.7641 398.575 88.9598C398.343 89.0587 398.035 89.2555 398.035 89.5502C398.035 96.5187 397.957 107.612 398.189 111.931C398.343 113.796 399.425 116.447 400.738 117.232C402.127 118.214 405.294 118.409 407.457 118.409C413.558 118.409 418.887 114.091 418.887 103.98ZM383.207 54.7022C383.978 54.7022 386.295 54.9958 392.242 54.9958C397.88 54.9958 402.359 54.8001 407.842 54.8001C414.561 54.8001 423.829 57.8424 423.829 70.604C423.829 76.8864 420.353 81.8934 415.797 84.3475C415.566 84.4453 415.566 84.6411 415.797 84.7389C422.284 86.8015 428 91.9053 428 101.525C428 110.949 423.366 116.937 416.647 120.668C412.553 122.925 407.457 123.71 402.282 123.71C398.343 123.71 387.763 123.122 381.894 123.318C381.276 123.023 382.434 119.489 382.974 118.901C384.365 118.802 385.445 118.704 386.913 118.115C388.999 117.429 389.23 116.642 389.539 112.618C389.693 109.182 389.694 97.0091 389.694 88.3716C389.694 76.4939 389.771 68.4446 389.694 64.5184C389.617 61.4761 388.767 60.4932 387.068 59.9039C385.754 59.6103 383.592 59.2167 381.816 58.9231C381.429 58.4317 382.742 55.0937 383.207 54.7022ZM338.644 115.76C340.498 117.623 344.128 118.408 347.372 118.408C351.542 118.408 355.712 117.429 359.728 112.813C363.822 108.103 366.679 100.839 366.679 89.2555C366.679 78.1618 363.358 69.1307 356.562 63.8312C352.7 60.7868 347.757 59.5124 342.042 59.5124C340.343 59.5124 338.721 59.6103 337.718 60.1986C337.485 60.3953 336.945 61.2782 336.945 61.7686C336.791 63.7323 336.791 78.849 336.791 87.6844C336.791 96.8134 336.791 109.575 336.945 111.047C336.945 112.52 337.485 114.778 338.644 115.76H338.644ZM321.112 54.7012C322.58 54.7012 328.217 54.9958 330.921 54.9958C335.787 54.9958 339.262 54.7022 348.452 54.7022C356.175 54.7022 362.663 57.352 367.296 62.3579C372.934 68.5425 375.87 77.0832 375.87 87.4876C375.87 102.311 370.54 110.851 365.211 115.76C359.883 120.765 352.932 123.71 343.046 123.71C337.795 123.71 328.759 123.514 321.267 123.415H321.19C320.804 122.532 321.808 119.096 322.425 118.999C324.434 118.704 324.974 118.605 325.979 118.116C327.6 117.33 327.909 116.25 328.141 112.618C328.372 105.844 328.295 97.6973 328.295 88.4694C328.295 81.8934 328.372 69.0329 328.217 64.9098C327.986 61.475 326.828 60.5911 324.511 60.0018C323.353 59.7082 321.808 59.3146 319.646 59.021C319.336 58.3328 320.726 55.2905 321.112 54.7022V54.7012Z" fill="#8E714E"/>
<path fill-rule="evenodd" clip-rule="evenodd" d="M227.664 119.587C225.733 119.292 224.343 118.901 222.644 117.919C222.413 117.722 222.026 116.741 222.026 116.348C221.872 112.912 221.872 103.096 221.872 96.5196C221.872 91.218 221.177 86.6046 219.401 83.3655C217.315 79.6339 214.304 77.4756 210.442 77.4756C207.044 77.4756 202.487 80.42 198.702 84.543C198.625 84.6409 198.008 85.3291 198.085 84.2484C198.085 83.1687 198.24 81.0093 198.317 79.536C198.394 78.1617 197.776 77.4756 197.776 77.4756C195.305 79.0457 188.354 81.1072 185.805 81.4008C183.952 81.8933 183.488 84.1505 185.42 84.9356H185.497C187.581 85.7206 188.972 86.6046 190.052 87.4885C190.825 88.2736 190.748 89.3533 190.748 90.2372C190.825 97.5983 190.825 108.888 190.594 115.072C190.517 117.526 189.976 118.409 188.585 118.802L188.74 118.704C187.659 118.998 186.809 119.292 185.496 119.489C185.032 120.078 185.032 123.219 185.496 123.907C186.346 123.907 190.825 123.612 194.533 123.612C199.63 123.612 202.256 123.907 203.568 123.907C204.109 123.122 204.264 120.176 203.955 119.489C202.487 119.391 201.406 119.195 200.402 118.802C199.012 118.408 198.625 117.526 198.548 115.465C198.394 110.261 198.394 99.2673 198.394 91.8073C198.394 89.7458 198.857 88.7639 199.32 88.1746C201.097 86.212 203.955 84.8377 206.503 84.8377C208.974 84.8377 210.596 85.8195 211.832 87.096C213.531 88.8618 214.071 91.4148 214.303 93.2795C214.689 97.5004 214.535 105.844 214.535 113.109C214.535 117.035 214.303 118.017 213.146 118.507C212.604 118.802 211.214 119.195 209.592 119.39C209.051 120.078 209.206 123.122 209.592 123.809C211.832 123.809 214.458 123.514 218.319 123.514C223.107 123.514 226.197 123.809 227.433 123.809C227.818 123.219 227.973 120.373 227.664 119.587ZM249.057 82.0901C244.964 82.0901 242.415 86.1142 242.415 92.3955C242.415 98.7769 244.655 106.139 250.988 106.139C252.069 106.139 254.077 105.55 255.003 104.175C256.471 102.41 257.475 98.8747 257.475 95.1442C257.475 86.9971 254.308 82.089 249.057 82.089V82.0901ZM248.516 125.477C246.972 125.477 245.89 126.066 245.195 126.557C241.952 129.206 240.485 131.759 240.485 134.803C240.485 137.649 241.334 139.906 243.188 141.87C245.427 144.324 248.516 145.503 252.455 145.503C260.332 145.503 263.808 140.103 263.808 134.803C263.808 131.072 262.34 128.618 259.329 127.245C257.166 126.066 253.228 125.477 248.516 125.477ZM249.057 151C244.346 151 240.947 149.723 238.013 146.877C235.155 144.128 233.92 140.005 233.92 137.159C233.92 136.374 234.075 134.213 235.465 132.25C236.313 131.072 238.168 128.815 242.57 124.986C242.724 124.888 242.801 124.791 242.801 124.593C242.801 124.397 242.646 124.2 242.492 124.103C238.863 122.336 237.781 119.489 237.472 117.919V117.722C237.396 117.133 237.241 116.544 237.936 115.955C238.477 115.465 239.249 114.875 240.098 114.189C241.411 113.206 242.801 112.127 243.651 111.243C243.805 111.047 243.805 110.851 243.805 110.655C243.805 110.458 243.651 110.261 243.496 110.164C238.091 107.906 235.388 102.801 235.388 95.1442C235.388 90.1383 237.164 85.6227 240.33 82.7762C242.492 80.6168 247.899 77.966 251.451 77.966H251.683C255.313 78.0638 257.32 79.0457 260.178 80.3221C261.723 81.0093 263.19 81.3029 265.199 81.3029C268.21 81.3029 269.523 80.1254 270.604 78.7521C270.682 78.9478 270.836 79.4392 270.913 80.7147C270.99 81.9911 270.682 83.8559 269.909 85.2302C269.291 86.3099 267.901 87.096 266.511 87.096H266.125C264.735 86.8992 264.116 86.7024 264.116 86.7024L263.808 86.8992C263.731 87.096 263.808 87.2917 263.885 87.5864L263.963 87.7832C264.117 88.6661 264.426 91.3158 264.426 92.0041C264.426 100.053 261.877 103.586 259.174 106.237C256.548 108.691 253.537 110.261 250.138 110.655C250.061 110.655 249.753 110.655 249.057 110.752C248.671 110.752 248.13 110.851 248.053 110.851H247.976C247.358 111.047 245.814 112.029 245.814 113.697C245.814 115.169 246.509 116.937 249.829 117.232C250.524 117.329 251.219 117.329 251.992 117.428C256.394 117.82 261.877 118.311 264.426 119.391C267.978 121.059 270.218 125.084 270.218 129.894C270.218 137.16 266.125 143.932 259.329 148.152C256.008 150.018 252.687 151 249.057 151ZM293.078 82.5805C291.457 82.5805 289.989 83.0698 288.908 84.0516C285.896 86.4078 284.351 91.1201 284.351 97.9908C284.351 110.851 289.448 119.882 296.708 119.882C298.871 119.882 300.57 119.096 302.037 117.526C304.276 115.169 305.435 110.458 305.435 103.881C305.435 91.1201 300.415 82.5794 293.079 82.5794L293.078 82.5805ZM294.469 124.594C281.339 124.594 276.629 112.324 276.629 100.838C276.629 92.7891 279.177 86.6046 284.274 82.1869C287.904 79.3403 292.229 77.7702 296.091 77.7702C306.13 77.7702 313.158 86.8992 313.158 100.053C313.158 108.986 310.378 116.053 305.049 120.373C302.5 122.532 298.098 124.594 294.468 124.594H294.469ZM156.844 82.5794C155.222 82.5794 153.755 83.0698 152.673 84.0516C149.662 86.4078 148.117 91.1201 148.117 97.9908C148.117 110.851 153.214 119.882 160.474 119.882C162.636 119.882 164.335 119.096 165.803 117.526C168.042 115.169 169.201 110.458 169.201 103.881C169.201 91.1201 164.258 82.5794 156.844 82.5794ZM158.234 124.594C145.105 124.594 140.394 112.324 140.394 100.838C140.394 92.7891 142.942 86.6046 148.039 82.1869C151.67 79.3403 155.995 77.7702 159.856 77.7702C169.896 77.7702 176.924 86.8992 176.924 100.053C176.924 108.986 174.144 116.053 168.814 120.373C166.343 122.532 161.941 124.594 158.234 124.594ZM69.9598 123.612C69.8049 123.318 69.6501 122.434 69.7279 121.355C69.7279 120.569 69.8828 120.078 69.9598 119.882C71.5817 119.587 72.4311 119.292 73.3576 118.998C74.9025 118.507 75.5201 117.428 75.5971 114.974C75.8298 109.084 75.8298 97.8929 75.7519 90.1383V89.9415C75.7519 89.0586 75.7519 87.9778 74.9025 87.1928C73.6664 86.212 72.1993 85.3291 70.2686 84.6398C69.5739 84.3473 69.1103 83.8559 69.1873 83.2676C69.1873 82.6783 69.6509 81.9911 70.6552 81.7944C73.2036 81.4997 79.8444 79.4392 82.4706 77.966C82.6254 78.1617 82.8572 78.7521 82.8572 79.5371L82.7802 80.6157C82.7024 81.6965 82.6254 82.973 82.6254 84.2484C82.6254 84.6409 82.935 84.9356 83.243 84.9356C83.3978 84.9356 83.5527 84.8377 83.7066 84.7388C88.6494 79.8307 93.1285 78.0638 95.445 78.0638C99.2303 78.0638 102.165 80.3221 104.405 85.0334C104.559 85.3291 104.714 85.427 104.945 85.427C105.099 85.427 105.33 85.3291 105.408 85.1324C109.965 80.7147 114.522 78.0638 117.533 78.0638C124.716 78.0638 128.964 84.8377 128.964 96.3228C128.964 99.5619 128.964 103.783 128.887 107.612C128.887 111.047 128.81 114.188 128.81 116.447C128.81 116.936 129.349 118.507 130.199 118.802C131.28 119.489 132.748 119.784 134.679 120.176H134.756C134.911 120.863 134.602 123.415 134.293 123.907C133.829 123.907 133.134 123.907 132.362 123.809C130.407 123.679 128.45 123.613 126.492 123.612C121.704 123.612 119.233 123.71 116.838 123.907C116.685 123.122 116.607 120.765 116.838 120.176C118.229 119.882 118.923 119.587 119.774 119.293C121.319 118.704 121.704 117.82 121.782 115.268C121.782 113.403 122.09 97.5004 121.627 93.672C121.164 89.7458 118.846 85.1324 113.749 85.1324C111.818 85.1324 108.807 86.1142 105.872 88.9597C105.718 89.1565 105.562 89.6468 105.562 89.9415V90.0404C105.872 92.1009 105.872 94.4581 105.872 98.0897V104.47C105.872 108.888 105.794 113.011 105.872 116.151C105.872 118.311 106.876 118.802 107.726 119.195C108.189 119.292 108.497 119.391 108.884 119.489C109.579 119.686 110.274 119.882 111.355 120.176C111.51 120.57 111.51 121.845 111.278 122.925C111.2 123.514 111.046 123.808 110.969 123.907C108.343 123.809 105.64 123.71 101.702 123.71C100.543 123.71 98.5348 123.809 96.8359 123.809C95.445 123.809 94.1327 123.907 93.3611 123.907C93.2833 123.71 93.1285 123.024 93.1285 121.943C93.1285 121.06 93.2833 120.373 93.4381 120.176C93.8239 120.078 94.1327 119.98 94.5194 119.98C95.445 119.784 96.2183 119.587 96.9899 119.391C98.3038 118.901 98.7666 118.017 98.8436 115.857C99.0755 110.949 99.3073 96.9122 98.7666 93.3774C97.8402 87.6843 95.2918 84.8377 91.1977 84.8377C88.8042 84.8377 85.7914 86.3099 83.3208 88.6671C82.9342 89.0586 82.6254 90.0394 82.6254 90.9233V96.7154C82.6254 103.783 82.6254 112.618 82.7024 116.447C82.7802 117.623 83.0882 118.998 84.8649 119.489C85.2516 119.587 85.8692 119.784 86.6417 119.882L88.0309 120.176C88.1866 120.765 88.1087 123.122 87.7999 123.907C87.0275 123.907 86.101 123.809 85.0189 123.809C83.3978 123.71 81.3123 123.612 78.9957 123.612C76.2926 123.612 74.3618 123.71 72.8169 123.809C71.7357 123.612 70.8862 123.612 69.9598 123.612Z" fill="#442D22"/>
<path fill-rule="evenodd" clip-rule="evenodd" d="M29.3358 147.172L26.1698 145.796C26.1698 145.796 26.5565 125.281 20.7635 123.809C16.9029 118.115 21.3828 -117.673 35.2837 123.023C35.2837 123.023 30.4949 126.065 29.6455 131.269C28.7182 136.374 29.3358 147.172 29.3358 147.172Z" fill="white"/>
<path fill-rule="evenodd" clip-rule="evenodd" d="M29.3358 147.172L26.1698 145.796C26.1698 145.796 26.5565 125.281 20.7635 123.809C16.9029 118.115 21.3828 -117.673 35.2837 123.023C35.2837 123.023 30.4949 126.065 29.6455 131.269C28.7182 136.374 29.3358 147.172 29.3358 147.172Z" fill="#A6A385"/>
<path fill-rule="evenodd" clip-rule="evenodd" d="M31.0356 127.343C31.0356 127.343 58.762 104.175 52.2736 55.9765C46.0186 20.9339 31.2674 9.44877 29.6455 5.03108C27.8696 1.88987 26.1699 -3.60645 26.1699 -3.60645L27.329 93.8678C27.329 93.9668 24.9346 123.71 31.0364 127.344" fill="white"/>
<path fill-rule="evenodd" clip-rule="evenodd" d="M31.0356 127.343C31.0356 127.343 58.762 104.175 52.2736 55.9765C46.0186 20.9339 31.2674 9.44877 29.6455 5.03108C27.8696 1.88987 26.1699 -3.60645 26.1699 -3.60645L27.329 93.8678C27.329 93.9668 24.9346 123.71 31.0364 127.344" fill="#499D4A"/>
<path fill-rule="evenodd" clip-rule="evenodd" d="M24.5488 128.618C24.5488 128.618 -1.47876 106.04 0.066152 66.2852C1.53324 26.5292 19.914 6.99476 23.4667 3.46104C25.784 0.319827 25.861 -0.858791 26.0159 -4C27.6378 0.417691 27.329 62.0643 27.5599 69.3275C28.2546 97.3037 26.3247 123.318 24.5488 128.618Z" fill="white"/>
<path fill-rule="evenodd" clip-rule="evenodd" d="M24.5488 128.618C24.5488 128.618 -1.47876 106.04 0.066152 66.2852C1.53324 26.5292 19.914 6.99476 23.4667 3.46104C25.784 0.319827 25.861 -0.858791 26.0159 -4C27.6378 0.417691 27.329 62.0643 27.5599 69.3275C28.2546 97.3037 26.3247 123.318 24.5488 128.618Z" fill="#58AA50"/>
</svg>
