<svg width="209" height="150" viewBox="0 0 209 150" fill="none" xmlns="http://www.w3.org/2000/svg">
<path d="M142.869 15.2039C141.85 15.2039 141.171 15.3489 140.485 15.5283V15.6388H140.59C141.066 16.5705 141.85 17.2951 142.458 18.1579C142.934 19.131 143.339 20.1317 143.783 21.1049L143.921 20.9599C144.737 20.3457 145.149 19.3794 145.149 17.9025C144.809 17.4677 144.737 17.0053 144.437 16.605C144.097 15.9907 143.346 15.6733 142.869 15.2039ZM50.2399 136.625H42.1801C41.9361 123.069 41.1538 109.53 39.8353 96.0429H39.77L27.4909 136.625H21.3317L9.15057 96.0429H9.04606C8.09943 109.549 7.53312 123.083 7.34789 136.625H0C0.397871 119.606 1.59022 102.619 3.57271 85.725H13.5724L25.2049 123.111H25.2702L37.0072 85.725H46.5301C48.6397 104.277 49.9003 121.241 50.2726 136.625H50.2399ZM85.2094 99.0659C81.9436 117.9 77.5871 131.6 72.2509 140.117C68.0316 146.694 63.44 150 58.4369 150C57.111 150 55.4782 149.565 53.5057 148.702V144.175C54.4919 144.32 55.6153 144.423 56.8759 144.423C59.2207 144.423 61.0952 143.706 62.5256 142.374C64.2238 140.717 65.0794 138.854 65.0794 136.804C65.0794 135.369 64.4328 132.491 63.0742 128.108L54.2633 99.0659H62.1925L68.5215 120.778C69.9519 125.741 70.5658 129.157 70.2915 131.131C73.7924 121.351 76.209 110.64 77.5741 99.0659H85.2094ZM192.567 136.625H169.641V85.725H177.362V130.372H192.567V136.625ZM163.652 137.853L154.809 133.25C155.592 132.566 156.337 131.814 157.023 130.951C160.798 126.314 162.672 119.377 162.672 110.247C162.672 93.3858 156.415 84.9796 143.894 84.9796C137.768 84.9796 132.974 87.0984 129.538 91.3774C125.796 96.0498 123.889 102.951 123.889 112.048C123.889 120.999 125.554 127.542 128.892 131.745C131.955 135.486 136.547 137.391 142.706 137.391C144.985 137.391 147.095 137.101 149.002 136.493L160.537 143.609L163.698 137.86L163.652 137.853ZM134.979 126.417C133.007 123.111 132.053 117.79 132.053 110.454C132.053 97.6234 135.73 91.2256 143.111 91.2256C146.958 91.2256 149.812 92.7716 151.615 95.829C153.554 99.1694 154.541 104.422 154.541 111.682C154.541 124.588 150.831 131.096 143.483 131.096C139.603 131.096 136.782 129.55 134.946 126.493L134.979 126.417ZM120.551 122.538C120.551 126.852 119.055 130.413 116.025 133.139C113.033 135.907 109.049 137.308 103.981 137.308C99.252 137.308 94.7257 135.727 90.2712 132.56L92.3482 128.177C96.1561 130.192 99.5916 131.2 102.727 131.2C105.62 131.2 107.9 130.517 109.532 129.185C111.165 127.818 112.152 125.913 112.152 123.505C112.152 120.482 110.146 117.894 106.502 115.74C103.132 113.766 96.3651 109.701 96.3651 109.701C92.6879 106.865 90.8852 103.842 90.8852 98.845C90.8852 94.7109 92.2437 91.405 94.9673 88.8859C97.7236 86.2978 101.224 85.0417 105.581 85.0417C109.915 85.0019 114.164 86.3152 117.795 88.8169L115.927 93.1995C113.008 91.8415 109.86 91.1208 106.672 91.0807C104.19 91.0807 102.283 91.7294 100.957 92.9855C99.6308 94.2416 98.8144 95.8221 98.8144 97.8028C98.8144 100.826 100.859 103.414 104.595 105.636C108.03 107.61 114.934 111.786 114.934 111.786C118.709 114.588 120.584 117.611 120.584 122.531L120.551 122.538ZM202.233 68.6572C197.57 68.5468 193.965 69.0506 190.941 70.4171C190.091 70.776 188.694 70.776 188.557 71.9286C189.033 72.4324 189.099 73.2261 189.51 73.9025C190.222 75.124 191.417 76.7804 192.541 77.6431C193.769 78.6508 194.99 79.6584 196.251 80.5211C198.53 81.9981 201.084 82.8608 203.324 84.3308C204.585 85.1935 205.878 86.3047 207.132 87.2088C207.779 87.6781 208.184 88.5063 209 88.7893V88.6099C208.589 88.0715 208.491 87.2778 208.079 86.636C207.498 86.0217 206.923 85.4834 206.342 84.8761C204.638 82.4864 202.596 80.3889 200.287 78.6577C198.419 77.3257 194.337 75.4553 193.586 73.1916L193.481 73.0467C194.742 72.9362 196.238 72.4324 197.459 72.0735C199.431 71.5352 201.267 71.6387 203.311 71.1004C204.249 70.8432 205.179 70.5555 206.1 70.2377V69.6993C205.048 68.5882 204.265 67.0767 203.174 66.0346C200.168 63.2555 196.96 60.7309 193.579 58.4842C191.744 57.2281 189.432 56.4344 187.492 55.3922C186.813 55.0334 185.624 54.8539 185.245 54.2397C184.194 52.8731 183.58 51.1132 182.828 49.4913C181.12 45.9825 179.532 42.4098 178.067 38.78C177.015 36.3713 176.402 33.9971 175.108 31.7679C169.119 21.305 162.587 14.9831 152.588 8.76472C150.446 7.46721 147.859 6.92888 145.135 6.24561C143.672 6.1766 142.242 6.06617 140.779 5.99716C139.825 5.56235 138.911 4.41668 138.095 3.83694C134.763 1.60771 126.188 -3.17513 123.771 3.15368C122.204 7.17734 126.083 11.0975 127.448 13.1128C128.435 14.5483 129.695 16.1357 130.407 17.7162C130.818 18.7928 130.916 19.9109 131.328 21.022C132.249 23.7206 133.131 26.7366 134.359 29.2557C135.005 30.5532 135.684 31.9128 136.501 33.0654C136.978 33.7487 137.794 34.0385 137.964 35.1497C137.147 36.4058 137.082 38.2416 136.638 39.7531C134.528 46.7238 135.345 55.3163 138.304 60.458C139.257 62.004 141.465 65.3858 144.43 64.0883C147.049 62.9771 146.474 59.4849 147.219 56.393C147.389 55.6407 147.284 55.1714 147.63 54.6676V54.8125C148.48 56.5379 149.296 58.1943 150.047 59.9197C151.817 62.9426 154.978 66.0691 157.597 68.1534C158.995 69.2645 160.079 71.1763 161.817 71.8527V71.6732H161.68C161.307 71.1349 160.831 70.8795 160.354 70.4516C159.251 69.2971 158.227 68.0608 157.29 66.7523C154.874 63.3015 152.699 59.4918 150.792 55.5717C149.873 53.6348 149.034 51.6567 148.277 49.6432C147.937 48.9254 147.937 47.8073 147.356 47.4484C146.474 48.7805 145.181 49.9261 144.567 51.617C143.444 54.2397 143.339 57.511 142.902 60.8928C142.699 60.9619 142.797 60.8928 142.699 61.0378C140.831 60.534 140.185 58.5187 139.499 56.7933C137.729 52.4107 137.454 45.3987 138.957 40.3674C139.368 39.0698 141.099 35.0117 140.42 33.7901C140.047 32.603 138.891 31.9197 138.277 30.988C137.494 29.8354 136.71 28.3654 136.168 27.0679C134.77 23.6171 134.091 19.8073 132.562 16.3565C131.883 14.776 130.655 13.1197 129.669 11.6496C128.546 9.99321 127.324 8.81303 126.469 6.86676C126.162 6.1835 125.757 5.07233 126.233 4.34766C126.338 3.84384 126.573 3.6644 127.05 3.51946C127.801 2.8362 129.976 3.69891 130.727 4.0923C132.869 4.98951 134.672 5.85222 136.475 7.14973C137.291 7.76398 138.173 8.90965 139.231 9.23403H140.459C142.327 9.66883 144.404 9.34445 146.141 9.91729C149.237 10.9594 152.026 12.4709 154.541 14.1204C162.231 19.3366 168.484 26.6018 172.672 35.1842C173.384 36.5853 173.691 37.8828 174.338 39.3528C175.526 42.4102 177.061 45.4608 178.283 48.3733C179.504 51.2858 180.667 54.2328 182.43 56.6414C183.312 57.9389 186.787 58.6153 188.38 59.2641C189.536 59.8369 191.339 60.3407 192.358 60.9895C194.363 62.287 196.336 63.757 198.21 65.1926C199.164 65.8758 202.057 67.4218 202.227 68.6434L202.233 68.6572Z" fill="black"/>
</svg>
