<svg width="256" height="255" viewBox="0 0 256 255" fill="none" xmlns="http://www.w3.org/2000/svg">
<path d="M126.771 0C61.939 0 65.987 28.115 65.987 28.115L66.059 57.243H127.927V65.988H41.486C41.486 65.988 0 61.283 0 126.698C0 192.115 36.21 189.795 36.21 189.795H57.82V159.439C57.82 159.439 56.655 123.229 93.452 123.229H154.814C154.814 123.229 189.289 123.786 189.289 89.91V33.898C189.289 33.898 194.525 0 126.771 0ZM92.657 19.588C94.119 19.5867 95.5669 19.8737 96.9178 20.4325C98.2688 20.9914 99.4963 21.8112 100.53 22.845C101.564 23.8787 102.384 25.1062 102.942 26.4572C103.501 27.8081 103.788 29.256 103.787 30.718C103.788 32.18 103.501 33.6279 102.942 34.9788C102.384 36.3298 101.564 37.5573 100.53 38.591C99.4963 39.6248 98.2688 40.4446 96.9178 41.0035C95.5669 41.5623 94.119 41.8493 92.657 41.848C91.195 41.8493 89.7471 41.5623 88.3962 41.0035C87.0452 40.4446 85.8177 39.6248 84.784 38.591C83.7502 37.5573 82.9304 36.3298 82.3715 34.9788C81.8127 33.6279 81.5257 32.18 81.527 30.718C81.5257 29.256 81.8127 27.8081 82.3715 26.4572C82.9304 25.1062 83.7502 23.8787 84.784 22.845C85.8177 21.8112 87.0452 20.9914 88.3962 20.4325C89.7471 19.8737 91.195 19.5867 92.657 19.588Z" fill="url(#paint0_linear)"/>
<path d="M128.612 254.054C193.444 254.054 189.396 225.939 189.396 225.939L189.324 196.812H127.455V188.067H213.896C213.896 188.067 255.382 192.772 255.382 127.355C255.382 61.9392 219.172 64.2592 219.172 64.2592H197.562V94.6142C197.562 94.6142 198.727 130.824 161.93 130.824H100.568C100.568 130.824 66.093 130.267 66.093 164.144V220.157C66.093 220.157 60.858 254.054 128.611 254.054H128.612ZM162.726 234.468C161.264 234.469 159.816 234.183 158.465 233.624C157.114 233.065 155.887 232.245 154.853 231.211C153.819 230.177 152.999 228.95 152.441 227.599C151.882 226.248 151.595 224.8 151.596 223.338C151.595 221.876 151.881 220.428 152.44 219.077C152.999 217.726 153.819 216.498 154.853 215.465C155.886 214.431 157.114 213.611 158.465 213.052C159.816 212.493 161.264 212.206 162.726 212.207C164.188 212.206 165.636 212.493 166.987 213.052C168.338 213.611 169.565 214.43 170.599 215.464C171.633 216.498 172.453 217.725 173.011 219.076C173.57 220.427 173.857 221.875 173.856 223.337C173.857 224.799 173.57 226.247 173.011 227.598C172.453 228.949 171.633 230.176 170.599 231.21C169.565 232.244 168.338 233.064 166.987 233.623C165.636 234.182 164.188 234.469 162.726 234.467V234.468Z" fill="url(#paint1_linear)"/>
<defs>
<linearGradient id="paint0_linear" x1="24.5421" y1="22.8506" x2="151.102" y2="148.148" gradientUnits="userSpaceOnUse">
<stop stop-color="#387EB8"/>
<stop offset="1" stop-color="#366994"/>
</linearGradient>
<linearGradient id="paint1_linear" x1="102.224" y1="103.309" x2="238.135" y2="231.789" gradientUnits="userSpaceOnUse">
<stop stop-color="#FFE052"/>
<stop offset="1" stop-color="#FFC331"/>
</linearGradient>
</defs>
</svg>
